<?xml version="1.0" encoding="UTF-8" standalone="no"?>
<svg
   width="700pt"
   height="700pt"
   version="1.1"
   viewBox="0 0 700 700"
   id="svg51"
   sodipodi:docname="logo.svg"
   inkscape:version="1.2.2 (b0a8486, 2022-12-01)"
   xmlns:inkscape="http://www.inkscape.org/namespaces/inkscape"
   xmlns:sodipodi="http://sodipodi.sourceforge.net/DTD/sodipodi-0.dtd"
   xmlns:xlink="http://www.w3.org/1999/xlink"
   xmlns="http://www.w3.org/2000/svg"
   xmlns:svg="http://www.w3.org/2000/svg">
  <sodipodi:namedview
     id="namedview53"
     pagecolor="#ffffff"
     bordercolor="#000000"
     borderopacity="0.25"
     inkscape:showpageshadow="2"
     inkscape:pageopacity="0.0"
     inkscape:pagecheckerboard="0"
     inkscape:deskcolor="#d1d1d1"
     inkscape:document-units="pt"
     showgrid="false"
     inkscape:zoom="0.25285714"
     inkscape:cx="464.68927"
     inkscape:cy="466.66667"
     inkscape:window-width="1309"
     inkscape:window-height="456"
     inkscape:window-x="0"
     inkscape:window-y="25"
     inkscape:window-maximized="0"
     inkscape:current-layer="svg51" />
  <defs
     id="defs7">
    <linearGradient
       x1="0%"
       y1="0%"
       x2="100%"
       y2="100%"
       gradientUnits="userSpaceOnUse"
       id="grad1">
      <stop
         offset="0%"
         style="stop-color:rgb(24,0,255);stop-opacity:1"
         id="stop2" />
      <stop
         offset="100%"
         style="stop-color:rgb(0,225,255);stop-opacity:1"
         id="stop4" />
    </linearGradient>
    <linearGradient
       inkscape:collect="always"
       xlink:href="#grad1"
       id="linearGradient255"
       gradientUnits="userSpaceOnUse"
       x1="0%"
       y1="0%"
       x2="100%"
       y2="100%" />
    <linearGradient
       inkscape:collect="always"
       xlink:href="#grad1"
       id="linearGradient257"
       gradientUnits="userSpaceOnUse"
       x1="0%"
       y1="0%"
       x2="100%"
       y2="100%" />
    <linearGradient
       inkscape:collect="always"
       xlink:href="#grad1"
       id="linearGradient259"
       gradientUnits="userSpaceOnUse"
       x1="0%"
       y1="0%"
       x2="100%"
       y2="100%" />
    <linearGradient
       inkscape:collect="always"
       xlink:href="#grad1"
       id="linearGradient261"
       gradientUnits="userSpaceOnUse"
       x1="0%"
       y1="0%"
       x2="100%"
       y2="100%" />
    <linearGradient
       inkscape:collect="always"
       xlink:href="#grad1"
       id="linearGradient263"
       gradientUnits="userSpaceOnUse"
       x1="0%"
       y1="0%"
       x2="100%"
       y2="100%" />
    <linearGradient
       inkscape:collect="always"
       xlink:href="#grad1"
       id="linearGradient265"
       gradientUnits="userSpaceOnUse"
       x1="0%"
       y1="0%"
       x2="100%"
       y2="100%" />
    <linearGradient
       inkscape:collect="always"
       xlink:href="#grad1"
       id="linearGradient267"
       gradientUnits="userSpaceOnUse"
       x1="0%"
       y1="0%"
       x2="100%"
       y2="100%" />
    <linearGradient
       inkscape:collect="always"
       xlink:href="#grad1"
       id="linearGradient269"
       gradientUnits="userSpaceOnUse"
       x1="0%"
       y1="0%"
       x2="100%"
       y2="100%" />
    <linearGradient
       inkscape:collect="always"
       xlink:href="#grad1"
       id="linearGradient271"
       gradientUnits="userSpaceOnUse"
       x1="0%"
       y1="0%"
       x2="100%"
       y2="100%" />
    <linearGradient
       inkscape:collect="always"
       xlink:href="#grad1"
       id="linearGradient273"
       gradientUnits="userSpaceOnUse"
       x1="0%"
       y1="0%"
       x2="100%"
       y2="100%" />
    <linearGradient
       inkscape:collect="always"
       xlink:href="#grad1"
       id="linearGradient275"
       gradientUnits="userSpaceOnUse"
       x1="0%"
       y1="0%"
       x2="100%"
       y2="100%" />
    <linearGradient
       inkscape:collect="always"
       xlink:href="#grad1"
       id="linearGradient277"
       gradientUnits="userSpaceOnUse"
       x1="0%"
       y1="0%"
       x2="100%"
       y2="100%" />
    <linearGradient
       inkscape:collect="always"
       xlink:href="#grad1"
       id="linearGradient279"
       gradientUnits="userSpaceOnUse"
       x1="0%"
       y1="0%"
       x2="100%"
       y2="100%" />
    <linearGradient
       inkscape:collect="always"
       xlink:href="#grad1"
       id="linearGradient281"
       gradientUnits="userSpaceOnUse"
       x1="0%"
       y1="0%"
       x2="100%"
       y2="100%" />
    <linearGradient
       inkscape:collect="always"
       xlink:href="#grad1"
       id="linearGradient283"
       gradientUnits="userSpaceOnUse"
       x1="0%"
       y1="0%"
       x2="100%"
       y2="100%" />
    <linearGradient
       inkscape:collect="always"
       xlink:href="#grad1"
       id="linearGradient285"
       gradientUnits="userSpaceOnUse"
       x1="0%"
       y1="0%"
       x2="100%"
       y2="100%" />
    <linearGradient
       inkscape:collect="always"
       xlink:href="#grad1"
       id="linearGradient287"
       gradientUnits="userSpaceOnUse"
       x1="0%"
       y1="0%"
       x2="100%"
       y2="100%" />
    <linearGradient
       inkscape:collect="always"
       xlink:href="#grad1"
       id="linearGradient289"
       gradientUnits="userSpaceOnUse"
       x1="0%"
       y1="0%"
       x2="100%"
       y2="100%" />
    <linearGradient
       inkscape:collect="always"
       xlink:href="#grad1"
       id="linearGradient291"
       gradientUnits="userSpaceOnUse"
       x1="0%"
       y1="0%"
       x2="100%"
       y2="100%" />
    <linearGradient
       inkscape:collect="always"
       xlink:href="#grad1"
       id="linearGradient293"
       gradientUnits="userSpaceOnUse"
       x1="0%"
       y1="0%"
       x2="100%"
       y2="100%" />
    <linearGradient
       inkscape:collect="always"
       xlink:href="#grad1"
       id="linearGradient295"
       gradientUnits="userSpaceOnUse"
       x1="0%"
       y1="0%"
       x2="100%"
       y2="100%" />
  </defs>
  <g
     style="fill:url(#linearGradient295);fill-opacity:1"
     id="g49"
     transform="matrix(0.77754416,0,0,0.77754416,70.150001,121.61017)">
    <path
       d="M 574,56 H 437.59 C 426.957,35.852 408.641,20.844 386.797,14.383 384.8126,5.9689 377.3126,0.02 368.672,0 h -37.336 c -8.4883,0.027344 -15.891,5.7812 -18.012,14 -21.988,6.5664 -40.41,21.703 -51.117,42 h -136.2 C 105.39,56 88.675,72.715 88.675,93.332 v 317.34 c 0,20.617 16.715,37.332 37.332,37.332 h 112 v 22.586 l -60.668,34.645 c -0.43359,0.29688 -0.83984,0.62891 -1.2227,0.99219 -0.32422,0.23047 -0.63672,0.47656 -0.93359,0.74609 -0.70312,0.74219 -1.2812,1.5977 -1.707,2.5273 0,0.0859 -0.10156,0.14062 -0.14062,0.22656 -0.42188,1.0547 -0.65234,2.1836 -0.67188,3.3203 0,0.10547 -0.0547,0.1875 -0.0547,0.28906 v 28 c 0,10.312 8.3555,18.668 18.668,18.668 h 317.4 c 10.309,0 18.664,-8.3555 18.664,-18.668 v -28 c 0,-0.10156 -0.0547,-0.18359 -0.0547,-0.28906 -0.0195,-1.1367 -0.24609,-2.2656 -0.67188,-3.3203 0,-0.0859 -0.11329,-0.15234 -0.14845,-0.23438 -0.42188,-0.92969 -0.99609,-1.7812 -1.6992,-2.5195 -0.29687,-0.26953 -0.60937,-0.51562 -0.93359,-0.74609 -0.37891,-0.36328 -0.78905,-0.69531 -1.2227,-0.99219 l -60.602,-34.645 v -22.586 h 112 c 20.617,0 37.332,-16.715 37.332,-37.332 v -317.34 c 0,-20.617 -16.715,-37.332 -37.332,-37.332 z m 0,18.668 c 10.309,0 18.668,8.3555 18.668,18.664 v 261.34 H 546 v -4.8555 c -0.004,-12.281 -8.0117,-23.129 -19.75,-26.75 l -102.66,-31.621 -5.3047,-31.789 c 3.2578,-2.8516 6.043,-6.2031 8.2422,-9.9297 4.1875,-8.6133 6.7188,-17.934 7.4688,-27.477 10.812,-2.3711 18.273,-12.285 17.555,-23.336 0,-3.6914 0.82031,-7.3359 2.3984,-10.676 0.90234,-2.0742 1.9062,-4.1016 3.0156,-6.0742 6.7578,-10.043 6.8164,-23.168 0.14062,-33.266 5.7812,-0.85156 11.133,-3.5586 15.238,-7.7188 5.3633,-5.2031 8.3711,-12.371 8.3281,-19.844 0,-15.461 -12.539,-28 -28,-28 h -1.5312 c -1.2969,-6.332 -3.0234,-12.566 -5.1602,-18.664 z m -401.33,280 v -4.8555 c -0.0195,-4.082 2.6328,-7.6953 6.5312,-8.9023 l 101.08,-31.137 c 7.4648,10.266 26.059,26.227 69.68,26.227 43.625,0 62.227,-15.98 69.684,-26.227 l 101.16,31.156 c 3.8945,1.1992 6.5469,4.8086 6.5352,8.8828 v 4.8555 z M 322,111.998 h 130.67 c 5.1523,0 9.332,4.1797 9.332,9.332 0.004,2.5195 -1.0312,4.9297 -2.8672,6.6562 -1.6992,1.7344 -4.0352,2.6992 -6.4648,2.6797 H 247.33 c -5.1523,0 -9.332,-4.1797 -9.332,-9.3359 -0.004,-2.5156 1.0312,-4.9258 2.8672,-6.6523 1.6992,-1.7344 4.0352,-2.7031 6.4648,-2.6797 z m -64.055,47.926 c 1.7305,-1.4883 4.2227,-1.6914 6.168,-0.50391 3.7344,1.6094 8.0781,0.71094 10.867,-2.25 1.7656,-1.9648 2.6211,-4.582 2.3594,-7.2148 l -0.0664,-0.625 h 145.45 l -0.0664,0.625 c 0,0.21484 0.0664,0.40234 0.0664,0.60938 0.0352,1.2344 0.23828,2.457 0.59766,3.6406 0.0625,0.19531 0,0.39062 0.12891,0.58594 0.20703,0.32422 0.4375,0.63672 0.67969,0.93359 0.3125,0.53516 0.67969,1.0391 1.0938,1.5039 0.41797,0.43359 0.88281,0.82031 1.3828,1.1562 0.96094,0.76562 2.1016,1.2734 3.3125,1.4766 0.34766,0.13672 0.70703,0.24609 1.0742,0.33594 0.32422,0 0.64062,0.043 0.93359,0.043 h 0.10937 c 0.40625,-0.0508 0.80859,-0.125 1.2031,-0.22266 0.78906,-0.082 1.5625,-0.26562 2.3086,-0.53906 0.082,-0.0156 0.16016,-0.0352 0.24219,-0.0586 1.957,-1.207 4.4648,-1.0195 6.2227,0.45703 1.6914,1.8008 2.2969,6.3867 -1.5195,13.422 -1.5859,2.9492 -2.9219,5.6016 -3.8359,7.8047 -2.6016,5.7578 -3.9023,12.02 -3.8086,18.34 0.0977,1.2422 -0.25,2.4805 -0.98047,3.4883 -1.9922,1.3281 -4.3867,1.9141 -6.7656,1.6641 -5.1562,0 -9.332,4.1758 -9.332,9.332 -0.0234,9.2578 -1.9531,18.41 -5.6758,26.891 -7.3555,8.6797 -16.648,15.504 -27.133,19.92599 -2.8789,1.28121 -5.4297,3.1953 -7.4648,5.5977 -6.2695,7.8555 -15.488,12.793 -25.5,13.656 -10,-0.85547 -19.207,-5.7773 -25.469,-13.617 -1.9336,-2.3164 -4.3516,-4.1719 -7.0859,-5.4414 -10.703,-4.3164 -20.172,-11.223 -27.551,-20.094 -3.7227,-8.4961 -5.6602,-17.664 -5.6953,-26.938 0,-5.1523 -4.1797,-9.332 -9.332,-9.332 -2.3789,0.25 -4.7656,-0.33984 -6.7578,-1.66409 -0.71875,-1.0117 -1.0508,-2.25 -0.93359,-3.48831 0.008,-6.293 -1.3086,-12.516 -3.8633,-18.266 -0.93359,-2.30469 -2.2891,-4.92969 -3.9023,-7.9336 -3.75,-6.9336 -3.1367,-11.5 -1.4648,-13.301 z m 51.492,117.87 c 0.36719,0.17578 0.6875,0.44141 0.93359,0.76562 9.8086,11.961 24.184,19.254 39.629,20.105 15.469,-0.85938 29.863,-8.1719 39.676,-20.16 0.35547,-0.42187 0.8125,-0.74219 1.3242,-0.93359 3.2969,-1.6719 6.8516,-3.5938 10.406,-5.7031 l 4.25,25.48 c -2.9805,5.1406 -15.121,19.98 -55.656,19.98 -40.777,0 -52.816,-15.008 -55.664,-19.918 l 4.2578,-25.543 c 3.6758,2.1758 7.3711,4.1719 10.844,5.9258 z M 432.067,93.334 H 387.333 V 34.275 c 28.199,11.18 39.922,38.133 44.734,59.059 z M 331.337,18.67 h 37.336 V 93.334 H 331.337 Z M 312.673,34.041 V 93.334 H 267.927 C 272.7629,72.26 284.493,45.127 312.673,34.041 Z M 126.003,74.67 h 127.87 c -2.1094,6.0977 -3.793,12.336 -5.0391,18.664 h -1.4961 c -15.43,0.07813 -27.922,12.57 -28,28 0.0469,13.738 10.055,25.414 23.625,27.562 -6.7266,10.062 -6.6953,23.195 0.0742,33.227 1.2227,2.2852 2.3047,4.332 3.0703,6.1992 1.5352,3.3281 2.3711,6.9375 2.4531,10.602 -0.375,6.25 1.832,12.383 6.1055,16.957 3.1016,3.1523 7.0352,5.3594 11.34,6.3672 0.74609,9.5352 3.2812,18.848 7.4648,27.449 2.1875,3.7539 4.9766,7.125 8.2539,9.9766 l -5.3047,31.734 -102.57,31.602 c -11.797,3.5938 -19.852,14.477 -19.844,26.805 v 4.8555 h -46.668 v -261.34 c 0,-10.309 8.3594,-18.664 18.668,-18.664 z m 65.332,466.66 v -18.664 h 317.34 v 18.664 z m 25.816,-37.332 32.668,-18.668 h 200.37 l 32.668,18.668 z m 226.18,-37.332 h -186.66 v -18.668 h 186.66 z m 130.67,-37.336 h -448 c -10.309,0 -18.668,-8.3555 -18.668,-18.664 V 373.33 h 485.34 v 37.336 c 0,10.309 -8.3594,18.664 -18.668,18.664 z"
       id="path9"
       style="fill:url(#linearGradient255)" />
    <path
       d="m 368.67,392 h -37.336 c -5.1523,0 -9.332,4.1797 -9.332,9.332 0,5.1562 4.1797,9.3359 9.332,9.3359 h 37.336 c 5.1523,0 9.332,-4.1797 9.332,-9.3359 0,-5.1523 -4.1797,-9.332 -9.332,-9.332 z"
       id="path11"
       style="fill:url(#linearGradient257)" />
    <use
       x="88.667969"
       y="700"
       xlink:href="#o"
       id="use13"
       style="fill:url(#linearGradient259)" />
    <use
       x="122.91406"
       y="700"
       xlink:href="#i"
       id="use15"
       style="fill:url(#linearGradient261)" />
    <use
       x="145.92969"
       y="700"
       xlink:href="#b"
       id="use17"
       style="fill:url(#linearGradient263)" />
    <use
       x="177.57812"
       y="700"
       xlink:href="#h"
       id="use19"
       style="fill:url(#linearGradient265)" />
    <use
       x="209.07031"
       y="700"
       xlink:href="#g"
       id="use21"
       style="fill:url(#linearGradient267)" />
    <use
       x="231.37891"
       y="700"
       xlink:href="#b"
       id="use23"
       style="fill:url(#linearGradient269)" />
    <use
       x="263.02734"
       y="700"
       xlink:href="#f"
       id="use25"
       style="fill:url(#linearGradient271)" />
    <use
       x="312.67969"
       y="700"
       xlink:href="#e"
       id="use27"
       style="fill:url(#linearGradient273)" />
    <use
       x="346.08594"
       y="700"
       xlink:href="#a"
       id="use29"
       style="fill:url(#linearGradient275)" />
    <use
       x="392.75391"
       y="700"
       xlink:href="#d"
       id="use31"
       style="fill:url(#linearGradient277)" />
    <use
       x="410.11719"
       y="700"
       xlink:href="#n"
       id="use33"
       style="fill:url(#linearGradient279)" />
    <use
       x="443.33984"
       y="700"
       xlink:href="#c"
       id="use35"
       style="fill:url(#linearGradient281)" />
    <use
       x="459.33594"
       y="700"
       xlink:href="#m"
       id="use37"
       style="fill:url(#linearGradient283)" />
    <use
       x="486.99609"
       y="700"
       xlink:href="#a"
       id="use39"
       style="fill:url(#linearGradient285)" />
    <use
       x="533.66406"
       y="700"
       xlink:href="#l"
       id="use41"
       style="fill:url(#linearGradient287)" />
    <use
       x="565.54297"
       y="700"
       xlink:href="#c"
       id="use43"
       style="fill:url(#linearGradient289)" />
    <use
       x="581.53906"
       y="700"
       xlink:href="#k"
       id="use45"
       style="fill:url(#linearGradient291)" />
    <use
       x="609.3125"
       y="700"
       xlink:href="#j"
       id="use47"
       style="fill:url(#linearGradient293)" />
  </g>
</svg>
