<?xml version="1.0" encoding="UTF-8"?>
<svg width="700pt" height="700pt" version="1.1" viewBox="0 0 700 700" xmlns="http://www.w3.org/2000/svg" xmlns:xlink="http://www.w3.org/1999/xlink">
 <defs>
  <linearGradient x1="0%" y1="0%" x2="100%" y2="100%" gradientUnits="userSpaceOnUse" id="grad1">
    <stop offset="0%" style="stop-color:rgb(24,0,255);stop-opacity:1"/>
    <stop offset="100%" style="stop-color:rgb(0,225,255);stop-opacity:1"/>
  </linearGradient>
 </defs>
 <g style="fill:url(#grad1);fill-opacity:1">
  <path d="m574 56h-136.41c-10.633-20.148-28.949-35.156-50.793-41.617-1.9844-8.4141-9.4844-14.363-18.125-14.383h-37.336c-8.4883 0.027344-15.891 5.7812-18.012 14-21.988 6.5664-40.41 21.703-51.117 42h-136.2c-20.617 0-37.332 16.715-37.332 37.332v317.34c0 20.617 16.715 37.332 37.332 37.332h112v22.586l-60.668 34.645c-0.43359 0.29688-0.83984 0.62891-1.2227 0.99219-0.32422 0.23047-0.63672 0.47656-0.93359 0.74609-0.70312 0.74219-1.2812 1.5977-1.707 2.5273 0 0.085937-0.10156 0.14062-0.14062 0.22656-0.42188 1.0547-0.65234 2.1836-0.67188 3.3203 0 0.10547-0.054688 0.1875-0.054688 0.28906v28c0 10.312 8.3555 18.668 18.668 18.668h317.4c10.309 0 18.664-8.3555 18.664-18.668v-28c0-0.10156-0.054687-0.18359-0.054687-0.28906-0.019532-1.1367-0.24609-2.2656-0.67188-3.3203 0-0.085937-0.11328-0.15234-0.14844-0.23438-0.42188-0.92969-0.99609-1.7812-1.6992-2.5195-0.29687-0.26953-0.60937-0.51562-0.93359-0.74609-0.37891-0.36328-0.78906-0.69531-1.2227-0.99219l-60.602-34.645v-22.586h112c20.617 0 37.332-16.715 37.332-37.332v-317.34c0-20.617-16.715-37.332-37.332-37.332zm0 18.668c10.309 0 18.668 8.3555 18.668 18.664v261.34h-46.668v-4.8555c-0.003906-12.281-8.0117-23.129-19.75-26.75l-102.66-31.621-5.3047-31.789c3.2578-2.8516 6.043-6.2031 8.2422-9.9297 4.1875-8.6133 6.7188-17.934 7.4688-27.477 10.812-2.3711 18.273-12.285 17.555-23.336 0-3.6914 0.82031-7.3359 2.3984-10.676 0.90234-2.0742 1.9062-4.1016 3.0156-6.0742 6.7578-10.043 6.8164-23.168 0.14062-33.266 5.7812-0.85156 11.133-3.5586 15.238-7.7188 5.3633-5.2031 8.3711-12.371 8.3281-19.844 0-15.461-12.539-28-28-28h-1.5312c-1.2969-6.332-3.0234-12.566-5.1602-18.664zm-401.33 280v-4.8555c-0.019531-4.082 2.6328-7.6953 6.5312-8.9023l101.08-31.137c7.4648 10.266 26.059 26.227 69.68 26.227 43.625 0 62.227-15.98 69.684-26.227l101.16 31.156c3.8945 1.1992 6.5469 4.8086 6.5352 8.8828v4.8555zm149.33-242.67h130.67c5.1523 0 9.332 4.1797 9.332 9.332 0.003906 2.5195-1.0312 4.9297-2.8672 6.6562-1.6992 1.7344-4.0352 2.6992-6.4648 2.6797h-205.34c-5.1523 0-9.332-4.1797-9.332-9.3359-0.003906-2.5156 1.0312-4.9258 2.8672-6.6523 1.6992-1.7344 4.0352-2.7031 6.4648-2.6797zm-64.055 47.926c1.7305-1.4883 4.2227-1.6914 6.168-0.50391 3.7344 1.6094 8.0781 0.71094 10.867-2.25 1.7656-1.9648 2.6211-4.582 2.3594-7.2148l-0.066406-0.625h145.45l-0.066406 0.625c0 0.21484 0.066406 0.40234 0.066406 0.60938 0.035157 1.2344 0.23828 2.457 0.59766 3.6406 0.0625 0.19531 0 0.39062 0.12891 0.58594 0.20703 0.32422 0.4375 0.63672 0.67969 0.93359 0.3125 0.53516 0.67969 1.0391 1.0938 1.5039 0.41797 0.43359 0.88281 0.82031 1.3828 1.1562 0.96094 0.76562 2.1016 1.2734 3.3125 1.4766 0.34766 0.13672 0.70703 0.24609 1.0742 0.33594 0.32422 0 0.64062 0.042969 0.93359 0.042969h0.10937c0.40625-0.050782 0.80859-0.125 1.2031-0.22266 0.78906-0.082031 1.5625-0.26562 2.3086-0.53906 0.082031-0.015625 0.16016-0.035157 0.24219-0.058594 1.957-1.207 4.4648-1.0195 6.2227 0.45703 1.6914 1.8008 2.2969 6.3867-1.5195 13.422-1.5859 2.9492-2.9219 5.6016-3.8359 7.8047-2.6016 5.7578-3.9023 12.02-3.8086 18.34 0.097657 1.2422-0.25 2.4805-0.98047 3.4883-1.9922 1.3281-4.3867 1.9141-6.7656 1.6641-5.1562 0-9.332 4.1758-9.332 9.332-0.023438 9.2578-1.9531 18.41-5.6758 26.891-7.3555 8.6797-16.648 15.504-27.133 19.926-2.8789 1.2812-5.4297 3.1953-7.4648 5.5977-6.2695 7.8555-15.488 12.793-25.5 13.656-10-0.85547-19.207-5.7773-25.469-13.617-1.9336-2.3164-4.3516-4.1719-7.0859-5.4414-10.703-4.3164-20.172-11.223-27.551-20.094-3.7227-8.4961-5.6602-17.664-5.6953-26.938 0-5.1523-4.1797-9.332-9.332-9.332-2.3789 0.25-4.7656-0.33984-6.7578-1.6641-0.71875-1.0117-1.0508-2.25-0.93359-3.4883 0.007813-6.293-1.3086-12.516-3.8633-18.266-0.93359-2.3047-2.2891-4.9297-3.9023-7.9336-3.75-6.9336-3.1367-11.5-1.4648-13.301zm51.492 117.87c0.36719 0.17578 0.6875 0.44141 0.93359 0.76562 9.8086 11.961 24.184 19.254 39.629 20.105 15.469-0.85938 29.863-8.1719 39.676-20.16 0.35547-0.42187 0.8125-0.74219 1.3242-0.93359 3.2969-1.6719 6.8516-3.5938 10.406-5.7031l4.25 25.48c-2.9805 5.1406-15.121 19.98-55.656 19.98-40.777 0-52.816-15.008-55.664-19.918l4.2578-25.543c3.6758 2.1758 7.3711 4.1719 10.844 5.9258zm122.63-184.46h-44.734v-59.059c28.199 11.18 39.922 38.133 44.734 59.059zm-100.73-74.664h37.336v74.664h-37.336zm-18.664 15.371v59.293h-44.746c4.8359-21.074 16.566-48.207 44.746-59.293zm-186.67 40.629h127.87c-2.1094 6.0977-3.793 12.336-5.0391 18.664h-1.4961c-15.43 0.078125-27.922 12.57-28 28 0.046875 13.738 10.055 25.414 23.625 27.562-6.7266 10.062-6.6953 23.195 0.074219 33.227 1.2227 2.2852 2.3047 4.332 3.0703 6.1992 1.5352 3.3281 2.3711 6.9375 2.4531 10.602-0.375 6.25 1.832 12.383 6.1055 16.957 3.1016 3.1523 7.0352 5.3594 11.34 6.3672 0.74609 9.5352 3.2812 18.848 7.4648 27.449 2.1875 3.7539 4.9766 7.125 8.2539 9.9766l-5.3047 31.734-102.57 31.602c-11.797 3.5938-19.852 14.477-19.844 26.805v4.8555h-46.668v-261.34c0-10.309 8.3594-18.664 18.668-18.664zm65.332 466.66v-18.664h317.34v18.664zm25.816-37.332 32.668-18.668h200.37l32.668 18.668zm226.18-37.332h-186.66v-18.668h186.66zm130.67-37.336h-448c-10.309 0-18.668-8.3555-18.668-18.664v-37.336h485.34v37.336c0 10.309-8.3594 18.664-18.668 18.664z"/>
  <path d="m368.67 392h-37.336c-5.1523 0-9.332 4.1797-9.332 9.332 0 5.1562 4.1797 9.3359 9.332 9.3359h37.336c5.1523 0 9.332-4.1797 9.332-9.3359 0-5.1523-4.1797-9.332-9.332-9.332z"/>
  <use x="88.667969" y="700" xlink:href="#o"/>
  <use x="122.914062" y="700" xlink:href="#i"/>
  <use x="145.929688" y="700" xlink:href="#b"/>
  <use x="177.578125" y="700" xlink:href="#h"/>
  <use x="209.070312" y="700" xlink:href="#g"/>
  <use x="231.378906" y="700" xlink:href="#b"/>
  <use x="263.027344" y="700" xlink:href="#f"/>
  <use x="312.679688" y="700" xlink:href="#e"/>
  <use x="346.085938" y="700" xlink:href="#a"/>
  <use x="392.753906" y="700" xlink:href="#d"/>
  <use x="410.117188" y="700" xlink:href="#n"/>
  <use x="443.339844" y="700" xlink:href="#c"/>
  <use x="459.335938" y="700" xlink:href="#m"/>
  <use x="486.996094" y="700" xlink:href="#a"/>
  <use x="533.664062" y="700" xlink:href="#l"/>
  <use x="565.542969" y="700" xlink:href="#c"/>
  <use x="581.539062" y="700" xlink:href="#k"/>
  <use x="609.3125" y="700" xlink:href="#j"/>
 </g>
</svg>
